<svg height="357" viewBox="0 0 600 357" width="600" xmlns="http://www.w3.org/2000/svg" xmlns:xlink="http://www.w3.org/1999/xlink"><linearGradient id="a"><stop offset="0" stop-color="#582c76"/><stop offset="1" stop-color="#da246d"/></linearGradient><linearGradient id="b" x1="72.962345%" x2="8.358237%" xlink:href="#a" y1="89.412842%" y2="-10.880524%"/><linearGradient id="c" x1="100%" x2="42.249755%" y1="87.604869%" y2="30.505898%"><stop offset="0" stop-color="#c12253"/><stop offset=".999399038" stop-color="#f1a944"/></linearGradient><linearGradient id="d" x1="66.360676%" x2="0%" y1="120.619285%" y2="9.404068%"><stop offset="0" stop-color="#c12253"/><stop offset="1" stop-color="#f1a944"/></linearGradient><linearGradient id="e" x1="100%" x2="16.421907%" xlink:href="#a" y1="50%" y2="-21.060112%"/><g fill="none" fill-rule="evenodd"><path d="m591.269058 0c1.418216 0 2.811881.37010785 4.043237 1.0737401 3.831159 2.18923375 5.211225 7.01695664 3.159649 10.8878279l-.12722.2310753-94.901064 166.0743567 94.901064 166.076859c2.233018 3.907782.875354 8.885885-3.032429 11.118903-1.231356.703633-2.625021 1.073741-4.043237 1.073741h-393.427398l203.735144-356.536503z" fill="url(#b)"/><path d="m8.14940577 356.536503c-4.50079253 0-8.14940577-3.648614-8.14940577-8.149406 0-1.418216.37010785-2.811881 1.0737401-4.043238l189.6922539-331.9614441c2.233018-3.90778222 7.211121-5.26544654 11.118903-3.03242812 1.263413.72195012 2.310478 1.76901532 3.032428 3.03242812l196.659479 344.1540881h-203.735144z" fill="url(#c)"/><path d="m95.9740875 178.268251 101.8675725 178.268252h-189.69225423c-4.50079253 0-8.14940577-3.648614-8.14940577-8.149406 0-1.418216.37010785-2.811881 1.0737401-4.043238z" fill="url(#d)"/><path d="m503.444376 178.268251 94.900348-166.0756077c2.233018-3.90778225.875354-8.88588478-3.032429-11.1189032-1.231356-.70363225-2.625021-1.0737401-4.043237-1.0737401h-189.692254z" fill="url(#e)"/><g fill="#000" fill-opacity=".2"><path d="m95.9740875 178.268251 101.8675725 178.268252h-20.373515z"/><path d="m401.576804 0 111.128 162.061-9.260428 16.207251z"/><path d="m310.618232 159.177231 111.332086 197.359272h-20.373514l-101.867572-178.268252z"/></g></g></svg>