<svg height="540" viewBox="0 0 600 540" width="600" xmlns="http://www.w3.org/2000/svg"><g fill="none" fill-rule="evenodd"><path d="m307.576095 2.03100258 287.90967 167.31833542c3.58129 2.081261 4.797302 6.671667 2.716041 10.252956-.655047 1.127159-1.592589 2.064105-2.720164 2.718435l-69.548642 40.358271 69.552765 40.420338c3.58129 2.081261 4.797302 6.671667 2.716041 10.252956-.655047 1.127159-1.592589 2.064105-2.720164 2.718435l-69.548642 40.358271 69.552765 40.420338c3.58129 2.081261 4.797302 6.671667 2.716041 10.252956-.655047 1.127159-1.592589 2.064105-2.720164 2.718435l-288.351874 167.330225c-4.655566 2.70162-10.401776 2.70162-15.057342 0l-288.33552477-167.320737c-3.58261194-2.078985-4.8015423-6.668617-2.72255715-10.251229.65595067-1.130367 1.59588912-2.069709 2.72667215-2.724943l69.64598377-40.356045-69.65009877-40.417783c-3.58261194-2.078985-4.8015423-6.668617-2.72255715-10.251229.60128811-1.03617 1.44120484-1.911826 2.44800622-2.555269l.2876497-.174719 69.636-40.351-69.64909877-40.417783c-3.58261194-2.078985-4.8015423-6.668617-2.72255715-10.251229.65595067-1.130367 1.59588912-2.069709 2.72667215-2.724943l288.77772177-167.33260287c4.657285-2.69866978 10.403502-2.69502131 15.057357.00956045z" fill="#2b9036"/><path d="m525.933 316.429 69.552765 40.420338c3.58129 2.081261 4.797302 6.671667 2.716041 10.252956-.655047 1.127159-1.592589 2.064105-2.720164 2.718435l-288.351874 167.330225c-4.655566 2.70162-10.401776 2.70162-15.057342 0l-288.33552477-167.320737c-3.58261194-2.078985-4.8015423-6.668617-2.72255715-10.251229.65595067-1.130367 1.59588912-2.069709 2.72667215-2.724943l69.64498377-40.356045 218.686426 126.902954c4.547297 2.638791 10.1351 2.700159 14.730793.184102l.326549-.184102z" fill="#d1353a"/><path d="m445.214 269.52 80.719 46.909-218.803232 126.971954c-4.655566 2.70162-10.401776 2.70162-15.057342 0l-218.685426-126.902954 80.836-46.841 137.849426 79.993954c4.547297 2.638791 10.1351 2.700159 14.730793.184102l.326549-.184102z" fill="#2f345f"/><path d="m3.73690123 276.080217c-3.58261194-2.078985-4.8015423-6.668617-2.72255715-10.251229.65595067-1.130367 1.59588912-2.069709 2.72667215-2.724943l288.77772177-167.3326029c4.657285-2.6986698 10.403502-2.6950213 15.057357.0095605l287.90967 167.3183354c3.58129 2.081261 4.797302 6.671667 2.716041 10.252956-.655047 1.127159-1.592589 2.064105-2.720164 2.718435l-69.548642 40.358271-218.356905-126.897997c-4.545625-2.641685-10.133397-2.7066-14.730691-.193456l-.326666.183895-219.131738 126.976558z" fill="#239639"/><path d="m73.386 222.748 80.836 46.909-80.835 46.841-69.65009877-40.417783c-3.58261194-2.078985-4.8015423-6.668617-2.72255715-10.251229.65595067-1.130367 1.59588912-2.069709 2.72667215-2.724943zm452.547-.069 69.552765 40.420338c3.58129 2.081261 4.797302 6.671667 2.716041 10.252956-.655047 1.127159-1.592589 2.064105-2.720164 2.718435l-69.548642 40.358271-80.718-46.909z" fill="#14498d"/><path d="m292.845404 189.337547c4.487835-2.453307 9.919543-2.449859 14.404259.009146l.326432.18431 137.637905 79.988997-138.084232 80.130954c-4.655566 2.70162-10.401776 2.70162-15.057342 0l-137.849426-79.993954 138.295738-80.135558z" fill="#2b9036"/><path d="m307.576095 2.03100258 287.90967 167.31833542c3.58129 2.081261 4.797302 6.671667 2.716041 10.252956-.655047 1.127159-1.592589 2.064105-2.720164 2.718435l-69.548642 40.358271-218.356905-126.8979974c-4.545625-2.6416845-10.133397-2.7065998-14.730691-.1934553l-.326666.1838948-219.132738 126.9765579-69.64909877-40.417783c-3.58261194-2.078985-4.8015423-6.668617-2.72255715-10.251229.65595067-1.130367 1.59588912-2.069709 2.72667215-2.724943l288.77772177-167.33260287c4.657285-2.69866978 10.403502-2.69502131 15.057357.00956045z" fill="#38b338"/></g></svg>